solid patch0
  facet normal -0 1 0
    outer loop
       vertex 0 16 1.5
       vertex 32 16 1.5
       vertex 0 16 -1.5
    endloop
  endfacet
  facet normal 0 1 0
    outer loop
       vertex 0 16 -1.5
       vertex 32 16 1.5
       vertex 32 16 -1.5
    endloop
  endfacet
  facet normal -1 0 0
    outer loop
       vertex 0 0 1.5
       vertex 0 16 1.5
       vertex 0 0 -1.5
    endloop
  endfacet
  facet normal -1 0 0
    outer loop
       vertex 0 0 -1.5
       vertex 0 16 1.5
       vertex 0 16 -1.5
    endloop
  endfacet
  facet normal -0 -1 -0
    outer loop
       vertex 32 0 1.5
       vertex 0 0 1.5
       vertex 32 0 -1.5
    endloop
  endfacet
  facet normal 0 -1 0
    outer loop
       vertex 32 0 -1.5
       vertex 0 0 1.5
       vertex 0 0 -1.5
    endloop
  endfacet
  facet normal 0.031836 -0.999493 0
    outer loop
       vertex 32 0 1.5
       vertex 32 0 -1.5
       vertex 34.0365 0.0648657 -1.5
    endloop
  endfacet
  facet normal 0.031836 -0.999493 0
    outer loop
       vertex 32 0 1.5
       vertex 34.0365 0.0648657 -1.5
       vertex 34.0365 0.0648657 1.5
    endloop
  endfacet
  facet normal 0.0953784 -0.995441 0
    outer loop
       vertex 34.0365 0.0648657 1.5
       vertex 34.0365 0.0648657 -1.5
       vertex 36.0647 0.2592 -1.5
    endloop
  endfacet
  facet normal 0.0953784 -0.995441 0
    outer loop
       vertex 34.0365 0.0648657 1.5
       vertex 36.0647 0.2592 -1.5
       vertex 36.0647 0.2592 1.5
    endloop
  endfacet
  facet normal 0.158535 -0.987353 0
    outer loop
       vertex 36.0647 0.2592 1.5
       vertex 36.0647 0.2592 -1.5
       vertex 38.0764 0.582214 -1.5
    endloop
  endfacet
  facet normal 0.158535 -0.987353 0
    outer loop
       vertex 36.0647 0.2592 1.5
       vertex 38.0764 0.582214 -1.5
       vertex 38.0764 0.582214 1.5
    endloop
  endfacet
  facet normal 0.221048 -0.975263 0
    outer loop
       vertex 38.0764 0.582214 1.5
       vertex 38.0764 0.582214 -1.5
       vertex 40.0635 1.0326 -1.5
    endloop
  endfacet
  facet normal 0.221048 -0.975263 0
    outer loop
       vertex 38.0764 0.582214 1.5
       vertex 40.0635 1.0326 -1.5
       vertex 40.0635 1.0326 1.5
    endloop
  endfacet
  facet normal 0.282667 -0.959218 0
    outer loop
       vertex 40.0635 1.0326 1.5
       vertex 40.0635 1.0326 -1.5
       vertex 42.0179 1.60853 -1.5
    endloop
  endfacet
  facet normal 0.282667 -0.959218 0
    outer loop
       vertex 40.0635 1.0326 1.5
       vertex 42.0179 1.60853 -1.5
       vertex 42.0179 1.60853 1.5
    endloop
  endfacet
  facet normal 0.343136 -0.939286 0
    outer loop
       vertex 42.0179 1.60853 1.5
       vertex 42.0179 1.60853 -1.5
       vertex 43.9317 2.30767 -1.5
    endloop
  endfacet
  facet normal 0.343136 -0.939286 0
    outer loop
       vertex 42.0179 1.60853 1.5
       vertex 43.9317 2.30767 -1.5
       vertex 43.9317 2.30767 1.5
    endloop
  endfacet
  facet normal 0.402217 -0.915544 0
    outer loop
       vertex 43.9317 2.30767 1.5
       vertex 43.9317 2.30767 -1.5
       vertex 45.7971 3.12719 -1.5
    endloop
  endfacet
  facet normal 0.402217 -0.915544 0
    outer loop
       vertex 43.9317 2.30767 1.5
       vertex 45.7971 3.12719 -1.5
       vertex 45.7971 3.12719 1.5
    endloop
  endfacet
  facet normal 0.459666 -0.888092 0
    outer loop
       vertex 45.7971 3.12719 1.5
       vertex 45.7971 3.12719 -1.5
       vertex 47.6066 4.06376 -1.5
    endloop
  endfacet
  facet normal 0.459666 -0.888092 0
    outer loop
       vertex 45.7971 3.12719 1.5
       vertex 47.6066 4.06376 -1.5
       vertex 47.6066 4.06376 1.5
    endloop
  endfacet
  facet normal 0.515254 -0.857037 0
    outer loop
       vertex 47.6066 4.06376 1.5
       vertex 47.6066 4.06376 -1.5
       vertex 49.3528 5.11359 -1.5
    endloop
  endfacet
  facet normal 0.515254 -0.857037 0
    outer loop
       vertex 47.6066 4.06376 1.5
       vertex 49.3528 5.11359 -1.5
       vertex 49.3528 5.11359 1.5
    endloop
  endfacet
  facet normal 0.56875 -0.82251 0
    outer loop
       vertex 49.3528 5.11359 1.5
       vertex 49.3528 5.11359 -1.5
       vertex 51.0287 6.27241 -1.5
    endloop
  endfacet
  facet normal 0.56875 -0.82251 0
    outer loop
       vertex 49.3528 5.11359 1.5
       vertex 51.0287 6.27241 -1.5
       vertex 51.0287 6.27241 1.5
    endloop
  endfacet
  facet normal 0.619939 -0.78465 0
    outer loop
       vertex 51.0287 6.27241 1.5
       vertex 51.0287 6.27241 -1.5
       vertex 52.6274 7.53554 -1.5
    endloop
  endfacet
  facet normal 0.619939 -0.78465 0
    outer loop
       vertex 51.0287 6.27241 1.5
       vertex 52.6274 7.53554 -1.5
       vertex 52.6274 7.53554 1.5
    endloop
  endfacet
  facet normal -1 0 0
    outer loop
       vertex 52.6274 -4.43258 1.5
       vertex 52.6274 7.53554 1.5
       vertex 52.6274 -4.43258 -1.5
    endloop
  endfacet
  facet normal -1 0 0
    outer loop
       vertex 52.6274 -4.43258 -1.5
       vertex 52.6274 7.53554 1.5
       vertex 52.6274 7.53554 -1.5
    endloop
  endfacet
  facet normal -0 -1 -0
    outer loop
       vertex 56.6274 -4.43258 1.5
       vertex 52.6274 -4.43258 1.5
       vertex 56.6274 -4.43258 -1.5
    endloop
  endfacet
  facet normal 0 -1 0
    outer loop
       vertex 56.6274 -4.43258 -1.5
       vertex 52.6274 -4.43258 1.5
       vertex 52.6274 -4.43258 -1.5
    endloop
  endfacet
  facet normal 1 0 0
    outer loop
       vertex 56.6274 11.5674 1.5
       vertex 56.6274 -4.43258 1.5
       vertex 56.6274 11.5674 -1.5
    endloop
  endfacet
  facet normal 1 0 0
    outer loop
       vertex 56.6274 11.5674 -1.5
       vertex 56.6274 -4.43258 1.5
       vertex 56.6274 -4.43258 -1.5
    endloop
  endfacet
  facet normal 0.791251 -0.611491 0
    outer loop
       vertex 56.6274 11.5674 1.5
       vertex 56.6274 11.5674 -1.5
       vertex 57.9823 13.3207 -1.5
    endloop
  endfacet
  facet normal 0.791251 -0.611491 0
    outer loop
       vertex 56.6274 11.5674 1.5
       vertex 57.9823 13.3207 -1.5
       vertex 57.9823 13.3207 1.5
    endloop
  endfacet
  facet normal 0.831673 -0.555266 0
    outer loop
       vertex 57.9823 13.3207 1.5
       vertex 57.9823 13.3207 -1.5
       vertex 59.2127 15.1635 -1.5
    endloop
  endfacet
  facet normal 0.831673 -0.555266 0
    outer loop
       vertex 57.9823 13.3207 1.5
       vertex 59.2127 15.1635 -1.5
       vertex 59.2127 15.1635 1.5
    endloop
  endfacet
  facet normal 0.868103 -0.496384 0
    outer loop
       vertex 59.2127 15.1635 1.5
       vertex 59.2127 15.1635 -1.5
       vertex 60.3126 17.087 -1.5
    endloop
  endfacet
  facet normal 0.868103 -0.496384 0
    outer loop
       vertex 59.2127 15.1635 1.5
       vertex 60.3126 17.087 -1.5
       vertex 60.3126 17.087 1.5
    endloop
  endfacet
  facet normal 0.900371 -0.435122 0
    outer loop
       vertex 60.3126 17.087 1.5
       vertex 60.3126 17.087 -1.5
       vertex 61.2767 19.082 -1.5
    endloop
  endfacet
  facet normal 0.900371 -0.435122 0
    outer loop
       vertex 60.3126 17.087 1.5
       vertex 61.2767 19.082 -1.5
       vertex 61.2767 19.082 1.5
    endloop
  endfacet
  facet normal 0.928325 -0.371769 0
    outer loop
       vertex 61.2767 19.082 1.5
       vertex 61.2767 19.082 -1.5
       vertex 62.1005 21.139 -1.5
    endloop
  endfacet
  facet normal 0.928325 -0.371769 0
    outer loop
       vertex 61.2767 19.082 1.5
       vertex 62.1005 21.139 -1.5
       vertex 62.1005 21.139 1.5
    endloop
  endfacet
  facet normal 0.951827 -0.306637 0
    outer loop
       vertex 62.1005 21.139 1.5
       vertex 62.1005 21.139 -1.5
       vertex 62.7799 23.248 -1.5
    endloop
  endfacet
  facet normal 0.951827 -0.306637 0
    outer loop
       vertex 62.1005 21.139 1.5
       vertex 62.7799 23.248 -1.5
       vertex 62.7799 23.248 1.5
    endloop
  endfacet
  facet normal 0.970765 -0.240032 0
    outer loop
       vertex 62.7799 23.248 1.5
       vertex 62.7799 23.248 -1.5
       vertex 63.3118 25.399 -1.5
    endloop
  endfacet
  facet normal 0.970765 -0.240032 0
    outer loop
       vertex 62.7799 23.248 1.5
       vertex 63.3118 25.399 -1.5
       vertex 63.3118 25.399 1.5
    endloop
  endfacet
  facet normal 0.985048 -0.172278 0
    outer loop
       vertex 63.3118 25.399 1.5
       vertex 63.3118 25.399 -1.5
       vertex 63.6935 27.5817 -1.5
    endloop
  endfacet
  facet normal 0.985048 -0.172278 0
    outer loop
       vertex 63.3118 25.399 1.5
       vertex 63.6935 27.5817 -1.5
       vertex 63.6935 27.5817 1.5
    endloop
  endfacet
  facet normal 0.994609 -0.103697 0
    outer loop
       vertex 63.6935 27.5817 1.5
       vertex 63.6935 27.5817 -1.5
       vertex 63.9233 29.7855 -1.5
    endloop
  endfacet
  facet normal 0.994609 -0.103697 0
    outer loop
       vertex 63.6935 27.5817 1.5
       vertex 63.9233 29.7855 -1.5
       vertex 63.9233 29.7855 1.5
    endloop
  endfacet
  facet normal 0.9994 -0.0346248 0
    outer loop
       vertex 63.9233 29.7855 1.5
       vertex 63.9233 29.7855 -1.5
       vertex 64 32 -1.5
    endloop
  endfacet
  facet normal 0.9994 -0.0346248 0
    outer loop
       vertex 63.9233 29.7855 1.5
       vertex 64 32 -1.5
       vertex 64 32 1.5
    endloop
  endfacet
  facet normal 1 0 0
    outer loop
       vertex 64 64 1.5
       vertex 64 32 1.5
       vertex 64 64 -1.5
    endloop
  endfacet
  facet normal 1 0 0
    outer loop
       vertex 64 64 -1.5
       vertex 64 32 1.5
       vertex 64 32 -1.5
    endloop
  endfacet
  facet normal -0 1 0
    outer loop
       vertex 48 64 1.5
       vertex 64 64 1.5
       vertex 48 64 -1.5
    endloop
  endfacet
  facet normal 0 1 0
    outer loop
       vertex 48 64 -1.5
       vertex 64 64 1.5
       vertex 64 64 -1.5
    endloop
  endfacet
  facet normal -1 0 0
    outer loop
       vertex 48 32 1.5
       vertex 48 64 1.5
       vertex 48 32 -1.5
    endloop
  endfacet
  facet normal -1 0 0
    outer loop
       vertex 48 32 -1.5
       vertex 48 64 1.5
       vertex 48 64 -1.5
    endloop
  endfacet
  facet normal -0.999417 0.0341414 0
    outer loop
       vertex 48 32 1.5
       vertex 48 32 -1.5
       vertex 47.9627 30.9081 1.5
    endloop
  endfacet
  facet normal -0.999417 0.0341414 0
    outer loop
       vertex 47.9627 30.9081 1.5
       vertex 48 32 -1.5
       vertex 47.9627 30.9081 -1.5
    endloop
  endfacet
  facet normal -0.994757 0.102267 0
    outer loop
       vertex 47.9627 30.9081 1.5
       vertex 47.9627 30.9081 -1.5
       vertex 47.851 29.8213 1.5
    endloop
  endfacet
  facet normal -0.994757 0.102267 0
    outer loop
       vertex 47.851 29.8213 1.5
       vertex 47.9627 30.9081 -1.5
       vertex 47.851 29.8213 -1.5
    endloop
  endfacet
  facet normal -0.985461 0.169901 0
    outer loop
       vertex 47.851 29.8213 1.5
       vertex 47.851 29.8213 -1.5
       vertex 47.6654 28.7447 1.5
    endloop
  endfacet
  facet normal -0.985461 0.169901 0
    outer loop
       vertex 47.6654 28.7447 1.5
       vertex 47.851 29.8213 -1.5
       vertex 47.6654 28.7447 -1.5
    endloop
  endfacet
  facet normal -0.971567 0.236767 0
    outer loop
       vertex 47.6654 28.7447 1.5
       vertex 47.6654 28.7447 -1.5
       vertex 47.4067 27.6833 1.5
    endloop
  endfacet
  facet normal -0.971567 0.236767 0
    outer loop
       vertex 47.4067 27.6833 1.5
       vertex 47.6654 28.7447 -1.5
       vertex 47.4067 27.6833 -1.5
    endloop
  endfacet
  facet normal -0.953142 0.302522 0
    outer loop
       vertex 47.4067 27.6833 1.5
       vertex 47.4067 27.6833 -1.5
       vertex 47.0762 26.6419 1.5
    endloop
  endfacet
  facet normal -0.953142 0.302522 0
    outer loop
       vertex 47.0762 26.6419 1.5
       vertex 47.4067 27.6833 -1.5
       vertex 47.0762 26.6419 -1.5
    endloop
  endfacet
  facet normal -0.93028 0.36685 0
    outer loop
       vertex 47.0762 26.6419 1.5
       vertex 47.0762 26.6419 -1.5
       vertex 46.6754 25.6256 1.5
    endloop
  endfacet
  facet normal -0.93028 0.36685 0
    outer loop
       vertex 46.6754 25.6256 1.5
       vertex 47.0762 26.6419 -1.5
       vertex 46.6754 25.6256 -1.5
    endloop
  endfacet
  facet normal -0.903076 0.42948 0
    outer loop
       vertex 46.6754 25.6256 1.5
       vertex 46.6754 25.6256 -1.5
       vertex 46.2062 24.639 1.5
    endloop
  endfacet
  facet normal -0.903076 0.42948 0
    outer loop
       vertex 46.2062 24.639 1.5
       vertex 46.6754 25.6256 -1.5
       vertex 46.2062 24.639 -1.5
    endloop
  endfacet
  facet normal -0.871658 0.490115 0
    outer loop
       vertex 46.2062 24.639 1.5
       vertex 46.2062 24.639 -1.5
       vertex 45.6707 23.6867 1.5
    endloop
  endfacet
  facet normal -0.871658 0.490115 0
    outer loop
       vertex 45.6707 23.6867 1.5
       vertex 46.2062 24.639 -1.5
       vertex 45.6707 23.6867 -1.5
    endloop
  endfacet
  facet normal -0.836186 0.548446 0
    outer loop
       vertex 45.6707 23.6867 1.5
       vertex 45.6707 23.6867 -1.5
       vertex 45.0715 22.7731 1.5
    endloop
  endfacet
  facet normal -0.836186 0.548446 0
    outer loop
       vertex 45.0715 22.7731 1.5
       vertex 45.6707 23.6867 -1.5
       vertex 45.0715 22.7731 -1.5
    endloop
  endfacet
  facet normal -0.796803 0.604239 0
    outer loop
       vertex 45.0715 22.7731 1.5
       vertex 45.0715 22.7731 -1.5
       vertex 44.4114 21.9026 1.5
    endloop
  endfacet
  facet normal -0.796803 0.604239 0
    outer loop
       vertex 44.4114 21.9026 1.5
       vertex 45.0715 22.7731 -1.5
       vertex 44.4114 21.9026 -1.5
    endloop
  endfacet
  facet normal -0.75371 0.657207 0
    outer loop
       vertex 44.4114 21.9026 1.5
       vertex 44.4114 21.9026 -1.5
       vertex 43.6934 21.0791 1.5
    endloop
  endfacet
  facet normal -0.75371 0.657207 0
    outer loop
       vertex 43.6934 21.0791 1.5
       vertex 44.4114 21.9026 -1.5
       vertex 43.6934 21.0791 -1.5
    endloop
  endfacet
  facet normal -0.70711 0.707103 0
    outer loop
       vertex 43.6934 21.0791 1.5
       vertex 43.6934 21.0791 -1.5
       vertex 42.9208 20.3066 1.5
    endloop
  endfacet
  facet normal -0.70711 0.707103 0
    outer loop
       vertex 42.9208 20.3066 1.5
       vertex 43.6934 21.0791 -1.5
       vertex 42.9208 20.3066 -1.5
    endloop
  endfacet
  facet normal -0.657202 0.753714 0
    outer loop
       vertex 42.9208 20.3066 1.5
       vertex 42.9208 20.3066 -1.5
       vertex 42.0974 19.5886 1.5
    endloop
  endfacet
  facet normal -0.657202 0.753714 0
    outer loop
       vertex 42.0974 19.5886 1.5
       vertex 42.9208 20.3066 -1.5
       vertex 42.0974 19.5886 -1.5
    endloop
  endfacet
  facet normal -0.604239 0.796803 0
    outer loop
       vertex 42.0974 19.5886 1.5
       vertex 42.0974 19.5886 -1.5
       vertex 41.2269 18.9285 1.5
    endloop
  endfacet
  facet normal -0.604239 0.796803 0
    outer loop
       vertex 41.2269 18.9285 1.5
       vertex 42.0974 19.5886 -1.5
       vertex 41.2269 18.9285 -1.5
    endloop
  endfacet
  facet normal -0.548446 0.836186 0
    outer loop
       vertex 41.2269 18.9285 1.5
       vertex 41.2269 18.9285 -1.5
       vertex 40.3133 18.3293 1.5
    endloop
  endfacet
  facet normal -0.548446 0.836186 0
    outer loop
       vertex 40.3133 18.3293 1.5
       vertex 41.2269 18.9285 -1.5
       vertex 40.3133 18.3293 -1.5
    endloop
  endfacet
  facet normal -0.490109 0.871661 0
    outer loop
       vertex 40.3133 18.3293 1.5
       vertex 40.3133 18.3293 -1.5
       vertex 39.361 17.7938 1.5
    endloop
  endfacet
  facet normal -0.490109 0.871661 0
    outer loop
       vertex 39.361 17.7938 1.5
       vertex 40.3133 18.3293 -1.5
       vertex 39.361 17.7938 -1.5
    endloop
  endfacet
  facet normal -0.429488 0.903073 0
    outer loop
       vertex 39.361 17.7938 1.5
       vertex 39.361 17.7938 -1.5
       vertex 38.3744 17.3246 1.5
    endloop
  endfacet
  facet normal -0.429488 0.903073 0
    outer loop
       vertex 38.3744 17.3246 1.5
       vertex 39.361 17.7938 -1.5
       vertex 38.3744 17.3246 -1.5
    endloop
  endfacet
  facet normal -0.36686 0.930276 0
    outer loop
       vertex 38.3744 17.3246 1.5
       vertex 38.3744 17.3246 -1.5
       vertex 37.3581 16.9238 1.5
    endloop
  endfacet
  facet normal -0.36686 0.930276 0
    outer loop
       vertex 37.3581 16.9238 1.5
       vertex 38.3744 17.3246 -1.5
       vertex 37.3581 16.9238 -1.5
    endloop
  endfacet
  facet normal -0.302511 0.953146 0
    outer loop
       vertex 37.3581 16.9238 1.5
       vertex 37.3581 16.9238 -1.5
       vertex 36.3167 16.5933 1.5
    endloop
  endfacet
  facet normal -0.302511 0.953146 0
    outer loop
       vertex 36.3167 16.5933 1.5
       vertex 37.3581 16.9238 -1.5
       vertex 36.3167 16.5933 -1.5
    endloop
  endfacet
  facet normal -0.236766 0.971567 0
    outer loop
       vertex 36.3167 16.5933 1.5
       vertex 36.3167 16.5933 -1.5
       vertex 35.2553 16.3347 1.5
    endloop
  endfacet
  facet normal -0.236766 0.971567 0
    outer loop
       vertex 35.2553 16.3347 1.5
       vertex 36.3167 16.5933 -1.5
       vertex 35.2553 16.3347 -1.5
    endloop
  endfacet
  facet normal -0.169901 0.985461 0
    outer loop
       vertex 35.2553 16.3347 1.5
       vertex 35.2553 16.3347 -1.5
       vertex 34.1787 16.149 1.5
    endloop
  endfacet
  facet normal -0.169901 0.985461 0
    outer loop
       vertex 34.1787 16.149 1.5
       vertex 35.2553 16.3347 -1.5
       vertex 34.1787 16.149 -1.5
    endloop
  endfacet
  facet normal -0.102269 0.994757 0
    outer loop
       vertex 34.1787 16.149 1.5
       vertex 34.1787 16.149 -1.5
       vertex 33.0919 16.0373 1.5
    endloop
  endfacet
  facet normal -0.102269 0.994757 0
    outer loop
       vertex 33.0919 16.0373 1.5
       vertex 34.1787 16.149 -1.5
       vertex 33.0919 16.0373 -1.5
    endloop
  endfacet
  facet normal -0.0341414 0.999417 0
    outer loop
       vertex 33.0919 16.0373 1.5
       vertex 33.0919 16.0373 -1.5
       vertex 32 16 1.5
    endloop
  endfacet
  facet normal -0.0341414 0.999417 0
    outer loop
       vertex 32 16 1.5
       vertex 33.0919 16.0373 -1.5
       vertex 32 16 -1.5
    endloop
  endfacet
  facet normal 0 0 1
    outer loop
       vertex 64 64 1.5
       vertex 48 64 1.5
       vertex 64 32 1.5
    endloop
  endfacet
  facet normal 0 0 1
    outer loop
       vertex 64 32 1.5
       vertex 48 64 1.5
       vertex 48 32 1.5
    endloop
  endfacet
  facet normal 0 0 1
    outer loop
       vertex 64 32 1.5
       vertex 48 32 1.5
       vertex 47.9627 30.9081 1.5
    endloop
  endfacet
  facet normal -0 0 1
    outer loop
       vertex 47.9627 30.9081 1.5
       vertex 47.851 29.8213 1.5
       vertex 64 32 1.5
    endloop
  endfacet
  facet normal 0 0 1
    outer loop
       vertex 64 32 1.5
       vertex 47.851 29.8213 1.5
       vertex 47.6654 28.7447 1.5
    endloop
  endfacet
  facet normal 0 0 1
    outer loop
       vertex 64 32 1.5
       vertex 47.6654 28.7447 1.5
       vertex 47.4067 27.6833 1.5
    endloop
  endfacet
  facet normal 0 0 1
    outer loop
       vertex 45.6707 23.6867 1.5
       vertex 45.0715 22.7731 1.5
       vertex 52.6274 7.53554 1.5
    endloop
  endfacet
  facet normal 0 0 1
    outer loop
       vertex 52.6274 7.53554 1.5
       vertex 45.0715 22.7731 1.5
       vertex 44.4114 21.9026 1.5
    endloop
  endfacet
  facet normal 0 0 1
    outer loop
       vertex 52.6274 7.53554 1.5
       vertex 44.4114 21.9026 1.5
       vertex 43.6934 21.0791 1.5
    endloop
  endfacet
  facet normal 0 0 1
    outer loop
       vertex 52.6274 -4.43258 1.5
       vertex 56.6274 -4.43258 1.5
       vertex 52.6274 7.53554 1.5
    endloop
  endfacet
  facet normal -0 0 1
    outer loop
       vertex 52.6274 7.53554 1.5
       vertex 56.6274 -4.43258 1.5
       vertex 56.6274 11.5674 1.5
    endloop
  endfacet
  facet normal 0 0 1
    outer loop
       vertex 52.6274 7.53554 1.5
       vertex 56.6274 11.5674 1.5
       vertex 57.9823 13.3207 1.5
    endloop
  endfacet
  facet normal 0 -0 1
    outer loop
       vertex 61.2767 19.082 1.5
       vertex 62.1005 21.139 1.5
       vertex 52.6274 7.53554 1.5
    endloop
  endfacet
  facet normal 0 0 1
    outer loop
       vertex 52.6274 7.53554 1.5
       vertex 62.1005 21.139 1.5
       vertex 62.7799 23.248 1.5
    endloop
  endfacet
  facet normal 0 0 1
    outer loop
       vertex 52.6274 7.53554 1.5
       vertex 62.7799 23.248 1.5
       vertex 63.3118 25.399 1.5
    endloop
  endfacet
  facet normal 0 -0 1
    outer loop
       vertex 63.3118 25.399 1.5
       vertex 63.6935 27.5817 1.5
       vertex 52.6274 7.53554 1.5
    endloop
  endfacet
  facet normal 0 0 1
    outer loop
       vertex 52.6274 7.53554 1.5
       vertex 63.6935 27.5817 1.5
       vertex 63.9233 29.7855 1.5
    endloop
  endfacet
  facet normal 0 0 1
    outer loop
       vertex 52.6274 7.53554 1.5
       vertex 63.9233 29.7855 1.5
       vertex 64 32 1.5
    endloop
  endfacet
  facet normal -0 0 1
    outer loop
       vertex 47.4067 27.6833 1.5
       vertex 47.0762 26.6419 1.5
       vertex 64 32 1.5
    endloop
  endfacet
  facet normal 0 0 1
    outer loop
       vertex 64 32 1.5
       vertex 47.0762 26.6419 1.5
       vertex 46.6754 25.6256 1.5
    endloop
  endfacet
  facet normal 0 0 1
    outer loop
       vertex 64 32 1.5
       vertex 46.6754 25.6256 1.5
       vertex 52.6274 7.53554 1.5
    endloop
  endfacet
  facet normal 0 0 1
    outer loop
       vertex 52.6274 7.53554 1.5
       vertex 46.6754 25.6256 1.5
       vertex 46.2062 24.639 1.5
    endloop
  endfacet
  facet normal 0 0 1
    outer loop
       vertex 52.6274 7.53554 1.5
       vertex 46.2062 24.639 1.5
       vertex 45.6707 23.6867 1.5
    endloop
  endfacet
  facet normal 0 -0 1
    outer loop
       vertex 57.9823 13.3207 1.5
       vertex 59.2127 15.1635 1.5
       vertex 52.6274 7.53554 1.5
    endloop
  endfacet
  facet normal 0 0 1
    outer loop
       vertex 52.6274 7.53554 1.5
       vertex 59.2127 15.1635 1.5
       vertex 60.3126 17.087 1.5
    endloop
  endfacet
  facet normal 0 0 1
    outer loop
       vertex 52.6274 7.53554 1.5
       vertex 60.3126 17.087 1.5
       vertex 61.2767 19.082 1.5
    endloop
  endfacet
  facet normal -0 0 1
    outer loop
       vertex 38.3744 17.3246 1.5
       vertex 45.7971 3.12719 1.5
       vertex 39.361 17.7938 1.5
    endloop
  endfacet
  facet normal 0 0 1
    outer loop
       vertex 39.361 17.7938 1.5
       vertex 45.7971 3.12719 1.5
       vertex 47.6066 4.06376 1.5
    endloop
  endfacet
  facet normal -0 0 1
    outer loop
       vertex 39.361 17.7938 1.5
       vertex 47.6066 4.06376 1.5
       vertex 40.3133 18.3293 1.5
    endloop
  endfacet
  facet normal 0 0 1
    outer loop
       vertex 40.3133 18.3293 1.5
       vertex 47.6066 4.06376 1.5
       vertex 49.3528 5.11359 1.5
    endloop
  endfacet
  facet normal -0 0 1
    outer loop
       vertex 40.3133 18.3293 1.5
       vertex 49.3528 5.11359 1.5
       vertex 41.2269 18.9285 1.5
    endloop
  endfacet
  facet normal 0 0 1
    outer loop
       vertex 41.2269 18.9285 1.5
       vertex 49.3528 5.11359 1.5
       vertex 51.0287 6.27241 1.5
    endloop
  endfacet
  facet normal -0 0 1
    outer loop
       vertex 41.2269 18.9285 1.5
       vertex 51.0287 6.27241 1.5
       vertex 42.0974 19.5886 1.5
    endloop
  endfacet
  facet normal 0 0 1
    outer loop
       vertex 42.0974 19.5886 1.5
       vertex 51.0287 6.27241 1.5
       vertex 52.6274 7.53554 1.5
    endloop
  endfacet
  facet normal -0 0 1
    outer loop
       vertex 42.0974 19.5886 1.5
       vertex 52.6274 7.53554 1.5
       vertex 42.9208 20.3066 1.5
    endloop
  endfacet
  facet normal -0 0 1
    outer loop
       vertex 42.9208 20.3066 1.5
       vertex 52.6274 7.53554 1.5
       vertex 43.6934 21.0791 1.5
    endloop
  endfacet
  facet normal -0 0 1
    outer loop
       vertex 0 16 1.5
       vertex 0 0 1.5
       vertex 32 16 1.5
    endloop
  endfacet
  facet normal 0 0 1
    outer loop
       vertex 32 16 1.5
       vertex 0 0 1.5
       vertex 32 0 1.5
    endloop
  endfacet
  facet normal -0 0 1
    outer loop
       vertex 32 16 1.5
       vertex 32 0 1.5
       vertex 33.0919 16.0373 1.5
    endloop
  endfacet
  facet normal 0 0 1
    outer loop
       vertex 33.0919 16.0373 1.5
       vertex 32 0 1.5
       vertex 34.0365 0.0648657 1.5
    endloop
  endfacet
  facet normal -0 0 1
    outer loop
       vertex 33.0919 16.0373 1.5
       vertex 34.0365 0.0648657 1.5
       vertex 34.1787 16.149 1.5
    endloop
  endfacet
  facet normal 0 0 1
    outer loop
       vertex 34.1787 16.149 1.5
       vertex 34.0365 0.0648657 1.5
       vertex 36.0647 0.2592 1.5
    endloop
  endfacet
  facet normal -0 0 1
    outer loop
       vertex 34.1787 16.149 1.5
       vertex 36.0647 0.2592 1.5
       vertex 35.2553 16.3347 1.5
    endloop
  endfacet
  facet normal 0 0 1
    outer loop
       vertex 35.2553 16.3347 1.5
       vertex 36.0647 0.2592 1.5
       vertex 38.0764 0.582214 1.5
    endloop
  endfacet
  facet normal -0 0 1
    outer loop
       vertex 35.2553 16.3347 1.5
       vertex 38.0764 0.582214 1.5
       vertex 36.3167 16.5933 1.5
    endloop
  endfacet
  facet normal 0 0 1
    outer loop
       vertex 36.3167 16.5933 1.5
       vertex 38.0764 0.582214 1.5
       vertex 40.0635 1.0326 1.5
    endloop
  endfacet
  facet normal -0 0 1
    outer loop
       vertex 36.3167 16.5933 1.5
       vertex 40.0635 1.0326 1.5
       vertex 37.3581 16.9238 1.5
    endloop
  endfacet
  facet normal 0 0 1
    outer loop
       vertex 37.3581 16.9238 1.5
       vertex 40.0635 1.0326 1.5
       vertex 42.0179 1.60853 1.5
    endloop
  endfacet
  facet normal -0 0 1
    outer loop
       vertex 37.3581 16.9238 1.5
       vertex 42.0179 1.60853 1.5
       vertex 38.3744 17.3246 1.5
    endloop
  endfacet
  facet normal 0 0 1
    outer loop
       vertex 38.3744 17.3246 1.5
       vertex 42.0179 1.60853 1.5
       vertex 43.9317 2.30767 1.5
    endloop
  endfacet
  facet normal 0 0 1
    outer loop
       vertex 38.3744 17.3246 1.5
       vertex 43.9317 2.30767 1.5
       vertex 45.7971 3.12719 1.5
    endloop
  endfacet
  facet normal 0 0 -1
    outer loop
       vertex 48 64 -1.5
       vertex 64 64 -1.5
       vertex 48 32 -1.5
    endloop
  endfacet
  facet normal 0 0 -1
    outer loop
       vertex 48 32 -1.5
       vertex 64 64 -1.5
       vertex 64 32 -1.5
    endloop
  endfacet
  facet normal 0 0 -1
    outer loop
       vertex 64 32 -1.5
       vertex 63.9233 29.7855 -1.5
       vertex 52.6274 7.53554 -1.5
    endloop
  endfacet
  facet normal 0 0 -1
    outer loop
       vertex 52.6274 7.53554 -1.5
       vertex 63.9233 29.7855 -1.5
       vertex 63.6935 27.5817 -1.5
    endloop
  endfacet
  facet normal 0 0 -1
    outer loop
       vertex 63.6935 27.5817 -1.5
       vertex 63.3118 25.399 -1.5
       vertex 52.6274 7.53554 -1.5
    endloop
  endfacet
  facet normal 0 0 -1
    outer loop
       vertex 52.6274 7.53554 -1.5
       vertex 63.3118 25.399 -1.5
       vertex 62.7799 23.248 -1.5
    endloop
  endfacet
  facet normal 0 0 -1
    outer loop
       vertex 52.6274 7.53554 -1.5
       vertex 62.7799 23.248 -1.5
       vertex 62.1005 21.139 -1.5
    endloop
  endfacet
  facet normal 0 0 -1
    outer loop
       vertex 62.1005 21.139 -1.5
       vertex 61.2767 19.082 -1.5
       vertex 52.6274 7.53554 -1.5
    endloop
  endfacet
  facet normal 0 0 -1
    outer loop
       vertex 52.6274 7.53554 -1.5
       vertex 61.2767 19.082 -1.5
       vertex 60.3126 17.087 -1.5
    endloop
  endfacet
  facet normal 0 0 -1
    outer loop
       vertex 52.6274 7.53554 -1.5
       vertex 60.3126 17.087 -1.5
       vertex 59.2127 15.1635 -1.5
    endloop
  endfacet
  facet normal 0 -0 -1
    outer loop
       vertex 47.6654 28.7447 -1.5
       vertex 64 32 -1.5
       vertex 47.4067 27.6833 -1.5
    endloop
  endfacet
  facet normal 0 -0 -1
    outer loop
       vertex 47.4067 27.6833 -1.5
       vertex 64 32 -1.5
       vertex 47.0762 26.6419 -1.5
    endloop
  endfacet
  facet normal 0 0 -1
    outer loop
       vertex 47.6654 28.7447 -1.5
       vertex 47.851 29.8213 -1.5
       vertex 64 32 -1.5
    endloop
  endfacet
  facet normal 0 0 -1
    outer loop
       vertex 64 32 -1.5
       vertex 47.851 29.8213 -1.5
       vertex 47.9627 30.9081 -1.5
    endloop
  endfacet
  facet normal -0 0 -1
    outer loop
       vertex 64 32 -1.5
       vertex 47.9627 30.9081 -1.5
       vertex 48 32 -1.5
    endloop
  endfacet
  facet normal 0 0 -1
    outer loop
       vertex 56.6274 -4.43258 -1.5
       vertex 52.6274 -4.43258 -1.5
       vertex 56.6274 11.5674 -1.5
    endloop
  endfacet
  facet normal 0 0 -1
    outer loop
       vertex 56.6274 11.5674 -1.5
       vertex 52.6274 -4.43258 -1.5
       vertex 52.6274 7.53554 -1.5
    endloop
  endfacet
  facet normal -0 0 -1
    outer loop
       vertex 56.6274 11.5674 -1.5
       vertex 52.6274 7.53554 -1.5
       vertex 57.9823 13.3207 -1.5
    endloop
  endfacet
  facet normal -0 0 -1
    outer loop
       vertex 57.9823 13.3207 -1.5
       vertex 52.6274 7.53554 -1.5
       vertex 59.2127 15.1635 -1.5
    endloop
  endfacet
  facet normal 0 0 -1
    outer loop
       vertex 42.9208 20.3066 -1.5
       vertex 43.6934 21.0791 -1.5
       vertex 52.6274 7.53554 -1.5
    endloop
  endfacet
  facet normal 0 0 -1
    outer loop
       vertex 52.6274 7.53554 -1.5
       vertex 43.6934 21.0791 -1.5
       vertex 44.4114 21.9026 -1.5
    endloop
  endfacet
  facet normal 0 0 -1
    outer loop
       vertex 52.6274 7.53554 -1.5
       vertex 44.4114 21.9026 -1.5
       vertex 45.0715 22.7731 -1.5
    endloop
  endfacet
  facet normal 0 0 -1
    outer loop
       vertex 45.0715 22.7731 -1.5
       vertex 45.6707 23.6867 -1.5
       vertex 52.6274 7.53554 -1.5
    endloop
  endfacet
  facet normal 0 0 -1
    outer loop
       vertex 52.6274 7.53554 -1.5
       vertex 45.6707 23.6867 -1.5
       vertex 46.2062 24.639 -1.5
    endloop
  endfacet
  facet normal 0 0 -1
    outer loop
       vertex 52.6274 7.53554 -1.5
       vertex 46.2062 24.639 -1.5
       vertex 64 32 -1.5
    endloop
  endfacet
  facet normal 0 0 -1
    outer loop
       vertex 64 32 -1.5
       vertex 46.2062 24.639 -1.5
       vertex 46.6754 25.6256 -1.5
    endloop
  endfacet
  facet normal 0 0 -1
    outer loop
       vertex 64 32 -1.5
       vertex 46.6754 25.6256 -1.5
       vertex 47.0762 26.6419 -1.5
    endloop
  endfacet
  facet normal 0 0 -1
    outer loop
       vertex 0 0 -1.5
       vertex 0 16 -1.5
       vertex 32 0 -1.5
    endloop
  endfacet
  facet normal 0 0 -1
    outer loop
       vertex 32 0 -1.5
       vertex 0 16 -1.5
       vertex 32 16 -1.5
    endloop
  endfacet
  facet normal 0 0 -1
    outer loop
       vertex 32 0 -1.5
       vertex 32 16 -1.5
       vertex 34.0365 0.0648657 -1.5
    endloop
  endfacet
  facet normal 0 0 -1
    outer loop
       vertex 34.0365 0.0648657 -1.5
       vertex 32 16 -1.5
       vertex 33.0919 16.0373 -1.5
    endloop
  endfacet
  facet normal 0 0 -1
    outer loop
       vertex 34.0365 0.0648657 -1.5
       vertex 33.0919 16.0373 -1.5
       vertex 36.0647 0.2592 -1.5
    endloop
  endfacet
  facet normal 0 0 -1
    outer loop
       vertex 36.0647 0.2592 -1.5
       vertex 33.0919 16.0373 -1.5
       vertex 34.1787 16.149 -1.5
    endloop
  endfacet
  facet normal 0 0 -1
    outer loop
       vertex 36.0647 0.2592 -1.5
       vertex 34.1787 16.149 -1.5
       vertex 38.0764 0.582214 -1.5
    endloop
  endfacet
  facet normal 0 0 -1
    outer loop
       vertex 38.0764 0.582214 -1.5
       vertex 34.1787 16.149 -1.5
       vertex 35.2553 16.3347 -1.5
    endloop
  endfacet
  facet normal 0 0 -1
    outer loop
       vertex 38.0764 0.582214 -1.5
       vertex 35.2553 16.3347 -1.5
       vertex 40.0635 1.0326 -1.5
    endloop
  endfacet
  facet normal 0 0 -1
    outer loop
       vertex 40.0635 1.0326 -1.5
       vertex 35.2553 16.3347 -1.5
       vertex 36.3167 16.5933 -1.5
    endloop
  endfacet
  facet normal 0 0 -1
    outer loop
       vertex 40.0635 1.0326 -1.5
       vertex 36.3167 16.5933 -1.5
       vertex 42.0179 1.60853 -1.5
    endloop
  endfacet
  facet normal 0 0 -1
    outer loop
       vertex 42.0179 1.60853 -1.5
       vertex 36.3167 16.5933 -1.5
       vertex 37.3581 16.9238 -1.5
    endloop
  endfacet
  facet normal 0 0 -1
    outer loop
       vertex 42.0179 1.60853 -1.5
       vertex 37.3581 16.9238 -1.5
       vertex 43.9317 2.30767 -1.5
    endloop
  endfacet
  facet normal 0 0 -1
    outer loop
       vertex 43.9317 2.30767 -1.5
       vertex 37.3581 16.9238 -1.5
       vertex 38.3744 17.3246 -1.5
    endloop
  endfacet
  facet normal 0 0 -1
    outer loop
       vertex 43.9317 2.30767 -1.5
       vertex 38.3744 17.3246 -1.5
       vertex 45.7971 3.12719 -1.5
    endloop
  endfacet
  facet normal 0 0 -1
    outer loop
       vertex 45.7971 3.12719 -1.5
       vertex 38.3744 17.3246 -1.5
       vertex 39.361 17.7938 -1.5
    endloop
  endfacet
  facet normal 0 0 -1
    outer loop
       vertex 45.7971 3.12719 -1.5
       vertex 39.361 17.7938 -1.5
       vertex 47.6066 4.06376 -1.5
    endloop
  endfacet
  facet normal 0 0 -1
    outer loop
       vertex 47.6066 4.06376 -1.5
       vertex 39.361 17.7938 -1.5
       vertex 49.3528 5.11359 -1.5
    endloop
  endfacet
  facet normal 0 0 -1
    outer loop
       vertex 49.3528 5.11359 -1.5
       vertex 39.361 17.7938 -1.5
       vertex 40.3133 18.3293 -1.5
    endloop
  endfacet
  facet normal 0 0 -1
    outer loop
       vertex 49.3528 5.11359 -1.5
       vertex 40.3133 18.3293 -1.5
       vertex 51.0287 6.27241 -1.5
    endloop
  endfacet
  facet normal 0 0 -1
    outer loop
       vertex 51.0287 6.27241 -1.5
       vertex 40.3133 18.3293 -1.5
       vertex 41.2269 18.9285 -1.5
    endloop
  endfacet
  facet normal 0 0 -1
    outer loop
       vertex 51.0287 6.27241 -1.5
       vertex 41.2269 18.9285 -1.5
       vertex 52.6274 7.53554 -1.5
    endloop
  endfacet
  facet normal 0 0 -1
    outer loop
       vertex 52.6274 7.53554 -1.5
       vertex 41.2269 18.9285 -1.5
       vertex 42.0974 19.5886 -1.5
    endloop
  endfacet
  facet normal 0 0 -1
    outer loop
       vertex 52.6274 7.53554 -1.5
       vertex 42.0974 19.5886 -1.5
       vertex 42.9208 20.3066 -1.5
    endloop
  endfacet
endsolid patch0
