solid innerWall
  facet normal -0 1 0
    outer loop
       vertex 0 16 1.5
       vertex 32 16 1.5
       vertex 0 16 -1.5
    endloop
  endfacet
  facet normal 0 1 0
    outer loop
       vertex 0 16 -1.5
       vertex 32 16 1.5
       vertex 32 16 -1.5
    endloop
  endfacet
  facet normal -1 0 0
    outer loop
       vertex 48 32 1.5
       vertex 48 64 1.5
       vertex 48 32 -1.5
    endloop
  endfacet
  facet normal -1 0 0
    outer loop
       vertex 48 32 -1.5
       vertex 48 64 1.5
       vertex 48 64 -1.5
    endloop
  endfacet
  facet normal -0.999417 0.0341408 0
    outer loop
       vertex 48 32 1.5
       vertex 48 32 -1.5
       vertex 47.9627 30.9081 1.5
    endloop
  endfacet
  facet normal -0.999417 0.0341408 0
    outer loop
       vertex 47.9627 30.9081 1.5
       vertex 48 32 -1.5
       vertex 47.9627 30.9081 -1.5
    endloop
  endfacet
  facet normal -0.99476 0.102239 0
    outer loop
       vertex 47.9627 30.9081 1.5
       vertex 47.9627 30.9081 -1.5
       vertex 47.851 29.8213 1.5
    endloop
  endfacet
  facet normal -0.99476 0.102239 0
    outer loop
       vertex 47.851 29.8213 1.5
       vertex 47.9627 30.9081 -1.5
       vertex 47.851 29.8213 -1.5
    endloop
  endfacet
  facet normal -0.985463 0.169889 0
    outer loop
       vertex 47.851 29.8213 1.5
       vertex 47.851 29.8213 -1.5
       vertex 47.6654 28.7447 1.5
    endloop
  endfacet
  facet normal -0.985463 0.169889 0
    outer loop
       vertex 47.6654 28.7447 1.5
       vertex 47.851 29.8213 -1.5
       vertex 47.6654 28.7447 -1.5
    endloop
  endfacet
  facet normal -0.971558 0.236804 0
    outer loop
       vertex 47.6654 28.7447 1.5
       vertex 47.6654 28.7447 -1.5
       vertex 47.4067 27.6833 1.5
    endloop
  endfacet
  facet normal -0.971558 0.236804 0
    outer loop
       vertex 47.4067 27.6833 1.5
       vertex 47.6654 28.7447 -1.5
       vertex 47.4067 27.6833 -1.5
    endloop
  endfacet
  facet normal -0.953151 0.302494 0
    outer loop
       vertex 47.4067 27.6833 1.5
       vertex 47.4067 27.6833 -1.5
       vertex 47.0762 26.6419 1.5
    endloop
  endfacet
  facet normal -0.953151 0.302494 0
    outer loop
       vertex 47.0762 26.6419 1.5
       vertex 47.4067 27.6833 -1.5
       vertex 47.0762 26.6419 -1.5
    endloop
  endfacet
  facet normal -0.930271 0.366872 0
    outer loop
       vertex 47.0762 26.6419 1.5
       vertex 47.0762 26.6419 -1.5
       vertex 46.6754 25.6256 1.5
    endloop
  endfacet
  facet normal -0.930271 0.366872 0
    outer loop
       vertex 46.6754 25.6256 1.5
       vertex 47.0762 26.6419 -1.5
       vertex 46.6754 25.6256 -1.5
    endloop
  endfacet
  facet normal -0.903077 0.429479 0
    outer loop
       vertex 46.6754 25.6256 1.5
       vertex 46.6754 25.6256 -1.5
       vertex 46.2062 24.639 1.5
    endloop
  endfacet
  facet normal -0.903077 0.429479 0
    outer loop
       vertex 46.2062 24.639 1.5
       vertex 46.6754 25.6256 -1.5
       vertex 46.2062 24.639 -1.5
    endloop
  endfacet
  facet normal -0.871642 0.490144 0
    outer loop
       vertex 46.2062 24.639 1.5
       vertex 46.2062 24.639 -1.5
       vertex 45.6707 23.6867 1.5
    endloop
  endfacet
  facet normal -0.871642 0.490144 0
    outer loop
       vertex 45.6707 23.6867 1.5
       vertex 46.2062 24.639 -1.5
       vertex 45.6707 23.6867 -1.5
    endloop
  endfacet
  facet normal -0.836195 0.548433 0
    outer loop
       vertex 45.6707 23.6867 1.5
       vertex 45.6707 23.6867 -1.5
       vertex 45.0715 22.7731 1.5
    endloop
  endfacet
  facet normal -0.836195 0.548433 0
    outer loop
       vertex 45.0715 22.7731 1.5
       vertex 45.6707 23.6867 -1.5
       vertex 45.0715 22.7731 -1.5
    endloop
  endfacet
  facet normal -0.796815 0.604223 0
    outer loop
       vertex 45.0715 22.7731 1.5
       vertex 45.0715 22.7731 -1.5
       vertex 44.4114 21.9026 1.5
    endloop
  endfacet
  facet normal -0.796815 0.604223 0
    outer loop
       vertex 44.4114 21.9026 1.5
       vertex 45.0715 22.7731 -1.5
       vertex 44.4114 21.9026 -1.5
    endloop
  endfacet
  facet normal -0.753738 0.657175 0
    outer loop
       vertex 44.4114 21.9026 1.5
       vertex 44.4114 21.9026 -1.5
       vertex 43.6934 21.0791 1.5
    endloop
  endfacet
  facet normal -0.753738 0.657175 0
    outer loop
       vertex 43.6934 21.0791 1.5
       vertex 44.4114 21.9026 -1.5
       vertex 43.6934 21.0791 -1.5
    endloop
  endfacet
  facet normal -0.70706 0.707154 0
    outer loop
       vertex 43.6934 21.0791 1.5
       vertex 43.6934 21.0791 -1.5
       vertex 42.9208 20.3066 1.5
    endloop
  endfacet
  facet normal -0.70706 0.707154 0
    outer loop
       vertex 42.9208 20.3066 1.5
       vertex 43.6934 21.0791 -1.5
       vertex 42.9208 20.3066 -1.5
    endloop
  endfacet
  facet normal -0.657221 0.753698 0
    outer loop
       vertex 42.9208 20.3066 1.5
       vertex 42.9208 20.3066 -1.5
       vertex 42.0974 19.5886 1.5
    endloop
  endfacet
  facet normal -0.657221 0.753698 0
    outer loop
       vertex 42.0974 19.5886 1.5
       vertex 42.9208 20.3066 -1.5
       vertex 42.0974 19.5886 -1.5
    endloop
  endfacet
  facet normal -0.604224 0.796815 0
    outer loop
       vertex 42.0974 19.5886 1.5
       vertex 42.0974 19.5886 -1.5
       vertex 41.2269 18.9285 1.5
    endloop
  endfacet
  facet normal -0.604224 0.796815 0
    outer loop
       vertex 41.2269 18.9285 1.5
       vertex 42.0974 19.5886 -1.5
       vertex 41.2269 18.9285 -1.5
    endloop
  endfacet
  facet normal -0.548433 0.836194 0
    outer loop
       vertex 41.2269 18.9285 1.5
       vertex 41.2269 18.9285 -1.5
       vertex 40.3133 18.3293 1.5
    endloop
  endfacet
  facet normal -0.548433 0.836194 0
    outer loop
       vertex 40.3133 18.3293 1.5
       vertex 41.2269 18.9285 -1.5
       vertex 40.3133 18.3293 -1.5
    endloop
  endfacet
  facet normal -0.490143 0.871642 0
    outer loop
       vertex 40.3133 18.3293 1.5
       vertex 40.3133 18.3293 -1.5
       vertex 39.361 17.7938 1.5
    endloop
  endfacet
  facet normal -0.490143 0.871642 0
    outer loop
       vertex 39.361 17.7938 1.5
       vertex 40.3133 18.3293 -1.5
       vertex 39.361 17.7938 -1.5
    endloop
  endfacet
  facet normal -0.429479 0.903077 0
    outer loop
       vertex 39.361 17.7938 1.5
       vertex 39.361 17.7938 -1.5
       vertex 38.3744 17.3246 1.5
    endloop
  endfacet
  facet normal -0.429479 0.903077 0
    outer loop
       vertex 38.3744 17.3246 1.5
       vertex 39.361 17.7938 -1.5
       vertex 38.3744 17.3246 -1.5
    endloop
  endfacet
  facet normal -0.366873 0.930271 0
    outer loop
       vertex 38.3744 17.3246 1.5
       vertex 38.3744 17.3246 -1.5
       vertex 37.3581 16.9238 1.5
    endloop
  endfacet
  facet normal -0.366873 0.930271 0
    outer loop
       vertex 37.3581 16.9238 1.5
       vertex 38.3744 17.3246 -1.5
       vertex 37.3581 16.9238 -1.5
    endloop
  endfacet
  facet normal -0.302493 0.953152 0
    outer loop
       vertex 37.3581 16.9238 1.5
       vertex 37.3581 16.9238 -1.5
       vertex 36.3167 16.5933 1.5
    endloop
  endfacet
  facet normal -0.302493 0.953152 0
    outer loop
       vertex 36.3167 16.5933 1.5
       vertex 37.3581 16.9238 -1.5
       vertex 36.3167 16.5933 -1.5
    endloop
  endfacet
  facet normal -0.236716 0.971579 0
    outer loop
       vertex 36.3167 16.5933 1.5
       vertex 36.3167 16.5933 -1.5
       vertex 35.2553 16.3347 1.5
    endloop
  endfacet
  facet normal -0.236716 0.971579 0
    outer loop
       vertex 35.2553 16.3347 1.5
       vertex 36.3167 16.5933 -1.5
       vertex 35.2553 16.3347 -1.5
    endloop
  endfacet
  facet normal -0.169977 0.985448 0
    outer loop
       vertex 35.2553 16.3347 1.5
       vertex 35.2553 16.3347 -1.5
       vertex 34.1787 16.149 1.5
    endloop
  endfacet
  facet normal -0.169977 0.985448 0
    outer loop
       vertex 34.1787 16.149 1.5
       vertex 35.2553 16.3347 -1.5
       vertex 34.1787 16.149 -1.5
    endloop
  endfacet
  facet normal -0.10224 0.99476 0
    outer loop
       vertex 34.1787 16.149 1.5
       vertex 34.1787 16.149 -1.5
       vertex 33.0919 16.0373 1.5
    endloop
  endfacet
  facet normal -0.10224 0.99476 0
    outer loop
       vertex 33.0919 16.0373 1.5
       vertex 34.1787 16.149 -1.5
       vertex 33.0919 16.0373 -1.5
    endloop
  endfacet
  facet normal -0.0341408 0.999417 0
    outer loop
       vertex 33.0919 16.0373 1.5
       vertex 33.0919 16.0373 -1.5
       vertex 32 16 1.5
    endloop
  endfacet
  facet normal -0.0341408 0.999417 0
    outer loop
       vertex 32 16 1.5
       vertex 33.0919 16.0373 -1.5
       vertex 32 16 -1.5
    endloop
  endfacet
endsolid innerWall
solid inlet
  facet normal -1 0 0
    outer loop
       vertex 0 0 1.5
       vertex 0 16 1.5
       vertex 0 0 -1.5
    endloop
  endfacet
  facet normal -1 0 0
    outer loop
       vertex 0 0 -1.5
       vertex 0 16 1.5
       vertex 0 16 -1.5
    endloop
  endfacet
endsolid inlet
solid outerWall1
  facet normal -0 -1 -0
    outer loop
       vertex 32 0 1.5
       vertex 0 0 1.5
       vertex 32 0 -1.5
    endloop
  endfacet
  facet normal 0 -1 0
    outer loop
       vertex 32 0 -1.5
       vertex 0 0 1.5
       vertex 0 0 -1.5
    endloop
  endfacet
  facet normal 0.0318354 -0.999493 0
    outer loop
       vertex 32 0 1.5
       vertex 32 0 -1.5
       vertex 34.0365 0.0648657 -1.5
    endloop
  endfacet
  facet normal 0.0318354 -0.999493 0
    outer loop
       vertex 32 0 1.5
       vertex 34.0365 0.0648657 -1.5
       vertex 34.0365 0.0648657 1.5
    endloop
  endfacet
  facet normal 0.0953792 -0.995441 0
    outer loop
       vertex 34.0365 0.0648657 1.5
       vertex 34.0365 0.0648657 -1.5
       vertex 36.0647 0.2592 -1.5
    endloop
  endfacet
  facet normal 0.0953792 -0.995441 0
    outer loop
       vertex 34.0365 0.0648657 1.5
       vertex 36.0647 0.2592 -1.5
       vertex 36.0647 0.2592 1.5
    endloop
  endfacet
  facet normal 0.158537 -0.987353 0
    outer loop
       vertex 36.0647 0.2592 1.5
       vertex 36.0647 0.2592 -1.5
       vertex 38.0764 0.582214 -1.5
    endloop
  endfacet
  facet normal 0.158537 -0.987353 0
    outer loop
       vertex 36.0647 0.2592 1.5
       vertex 38.0764 0.582214 -1.5
       vertex 38.0764 0.582214 1.5
    endloop
  endfacet
  facet normal 0.221048 -0.975263 0
    outer loop
       vertex 38.0764 0.582214 1.5
       vertex 38.0764 0.582214 -1.5
       vertex 40.0635 1.0326 -1.5
    endloop
  endfacet
  facet normal 0.221048 -0.975263 0
    outer loop
       vertex 38.0764 0.582214 1.5
       vertex 40.0635 1.0326 -1.5
       vertex 40.0635 1.0326 1.5
    endloop
  endfacet
  facet normal 0.282666 -0.959218 0
    outer loop
       vertex 40.0635 1.0326 1.5
       vertex 40.0635 1.0326 -1.5
       vertex 42.0179 1.60853 -1.5
    endloop
  endfacet
  facet normal 0.282666 -0.959218 0
    outer loop
       vertex 40.0635 1.0326 1.5
       vertex 42.0179 1.60853 -1.5
       vertex 42.0179 1.60853 1.5
    endloop
  endfacet
  facet normal 0.343135 -0.939286 0
    outer loop
       vertex 42.0179 1.60853 1.5
       vertex 42.0179 1.60853 -1.5
       vertex 43.9317 2.30767 -1.5
    endloop
  endfacet
  facet normal 0.343135 -0.939286 0
    outer loop
       vertex 42.0179 1.60853 1.5
       vertex 43.9317 2.30767 -1.5
       vertex 43.9317 2.30767 1.5
    endloop
  endfacet
  facet normal 0.402222 -0.915542 0
    outer loop
       vertex 43.9317 2.30767 1.5
       vertex 43.9317 2.30767 -1.5
       vertex 45.7971 3.12719 -1.5
    endloop
  endfacet
  facet normal 0.402222 -0.915542 0
    outer loop
       vertex 43.9317 2.30767 1.5
       vertex 45.7971 3.12719 -1.5
       vertex 45.7971 3.12719 1.5
    endloop
  endfacet
  facet normal 0.459663 -0.888093 0
    outer loop
       vertex 45.7971 3.12719 1.5
       vertex 45.7971 3.12719 -1.5
       vertex 47.6066 4.06376 -1.5
    endloop
  endfacet
  facet normal 0.459663 -0.888093 0
    outer loop
       vertex 45.7971 3.12719 1.5
       vertex 47.6066 4.06376 -1.5
       vertex 47.6066 4.06376 1.5
    endloop
  endfacet
  facet normal 0.515258 -0.857035 0
    outer loop
       vertex 47.6066 4.06376 1.5
       vertex 47.6066 4.06376 -1.5
       vertex 49.3528 5.11359 -1.5
    endloop
  endfacet
  facet normal 0.515258 -0.857035 0
    outer loop
       vertex 47.6066 4.06376 1.5
       vertex 49.3528 5.11359 -1.5
       vertex 49.3528 5.11359 1.5
    endloop
  endfacet
  facet normal 0.568739 -0.822518 0
    outer loop
       vertex 49.3528 5.11359 1.5
       vertex 49.3528 5.11359 -1.5
       vertex 51.0287 6.27241 -1.5
    endloop
  endfacet
  facet normal 0.568739 -0.822518 0
    outer loop
       vertex 49.3528 5.11359 1.5
       vertex 51.0287 6.27241 -1.5
       vertex 51.0287 6.27241 1.5
    endloop
  endfacet
  facet normal 0.619947 -0.784644 0
    outer loop
       vertex 51.0287 6.27241 1.5
       vertex 51.0287 6.27241 -1.5
       vertex 52.6274 7.53554 -1.5
    endloop
  endfacet
  facet normal 0.619947 -0.784644 0
    outer loop
       vertex 51.0287 6.27241 1.5
       vertex 52.6274 7.53554 -1.5
       vertex 52.6274 7.53554 1.5
    endloop
  endfacet
endsolid outerWall1
solid injectorWall1
  facet normal -1 0 0
    outer loop
       vertex 52.6274 -4.43258 1.5
       vertex 52.6274 7.53554 1.5
       vertex 52.6274 -4.43258 -1.5
    endloop
  endfacet
  facet normal -1 0 0
    outer loop
       vertex 52.6274 -4.43258 -1.5
       vertex 52.6274 7.53554 1.5
       vertex 52.6274 7.53554 -1.5
    endloop
  endfacet
endsolid injectorWall1
solid injectorInlet
  facet normal -0 -1 -0
    outer loop
       vertex 56.6274 -4.43258 1.5
       vertex 52.6274 -4.43258 1.5
       vertex 56.6274 -4.43258 -1.5
    endloop
  endfacet
  facet normal 0 -1 0
    outer loop
       vertex 56.6274 -4.43258 -1.5
       vertex 52.6274 -4.43258 1.5
       vertex 52.6274 -4.43258 -1.5
    endloop
  endfacet
endsolid injectorInlet
solid injectorWall2
  facet normal 1 0 0
    outer loop
       vertex 56.6274 11.5674 1.5
       vertex 56.6274 -4.43258 1.5
       vertex 56.6274 11.5674 -1.5
    endloop
  endfacet
  facet normal 1 0 0
    outer loop
       vertex 56.6274 11.5674 -1.5
       vertex 56.6274 -4.43258 1.5
       vertex 56.6274 -4.43258 -1.5
    endloop
  endfacet
endsolid injectorWall2
solid outerWall2
  facet normal 0.791268 -0.61147 0
    outer loop
       vertex 56.6274 11.5674 1.5
       vertex 56.6274 11.5674 -1.5
       vertex 57.9823 13.3207 -1.5
    endloop
  endfacet
  facet normal 0.791268 -0.61147 0
    outer loop
       vertex 56.6274 11.5674 1.5
       vertex 57.9823 13.3207 -1.5
       vertex 57.9823 13.3207 1.5
    endloop
  endfacet
  facet normal 0.831661 -0.555283 0
    outer loop
       vertex 57.9823 13.3207 1.5
       vertex 57.9823 13.3207 -1.5
       vertex 59.2127 15.1635 -1.5
    endloop
  endfacet
  facet normal 0.831661 -0.555283 0
    outer loop
       vertex 57.9823 13.3207 1.5
       vertex 59.2127 15.1635 -1.5
       vertex 59.2127 15.1635 1.5
    endloop
  endfacet
  facet normal 0.868096 -0.496396 0
    outer loop
       vertex 59.2127 15.1635 1.5
       vertex 59.2127 15.1635 -1.5
       vertex 60.3126 17.087 -1.5
    endloop
  endfacet
  facet normal 0.868096 -0.496396 0
    outer loop
       vertex 59.2127 15.1635 1.5
       vertex 60.3126 17.087 -1.5
       vertex 60.3126 17.087 1.5
    endloop
  endfacet
  facet normal 0.900376 -0.435114 0
    outer loop
       vertex 60.3126 17.087 1.5
       vertex 60.3126 17.087 -1.5
       vertex 61.2767 19.082 -1.5
    endloop
  endfacet
  facet normal 0.900376 -0.435114 0
    outer loop
       vertex 60.3126 17.087 1.5
       vertex 61.2767 19.082 -1.5
       vertex 61.2767 19.082 1.5
    endloop
  endfacet
  facet normal 0.928321 -0.371779 0
    outer loop
       vertex 61.2767 19.082 1.5
       vertex 61.2767 19.082 -1.5
       vertex 62.1005 21.139 -1.5
    endloop
  endfacet
  facet normal 0.928321 -0.371779 0
    outer loop
       vertex 61.2767 19.082 1.5
       vertex 62.1005 21.139 -1.5
       vertex 62.1005 21.139 1.5
    endloop
  endfacet
  facet normal 0.95183 -0.306626 0
    outer loop
       vertex 62.1005 21.139 1.5
       vertex 62.1005 21.139 -1.5
       vertex 62.7799 23.248 -1.5
    endloop
  endfacet
  facet normal 0.95183 -0.306626 0
    outer loop
       vertex 62.1005 21.139 1.5
       vertex 62.7799 23.248 -1.5
       vertex 62.7799 23.248 1.5
    endloop
  endfacet
  facet normal 0.970761 -0.240049 0
    outer loop
       vertex 62.7799 23.248 1.5
       vertex 62.7799 23.248 -1.5
       vertex 63.3118 25.399 -1.5
    endloop
  endfacet
  facet normal 0.970761 -0.240049 0
    outer loop
       vertex 62.7799 23.248 1.5
       vertex 63.3118 25.399 -1.5
       vertex 63.3118 25.399 1.5
    endloop
  endfacet
  facet normal 0.985051 -0.172262 0
    outer loop
       vertex 63.3118 25.399 1.5
       vertex 63.3118 25.399 -1.5
       vertex 63.6935 27.5817 -1.5
    endloop
  endfacet
  facet normal 0.985051 -0.172262 0
    outer loop
       vertex 63.3118 25.399 1.5
       vertex 63.6935 27.5817 -1.5
       vertex 63.6935 27.5817 1.5
    endloop
  endfacet
  facet normal 0.994607 -0.103713 0
    outer loop
       vertex 63.6935 27.5817 1.5
       vertex 63.6935 27.5817 -1.5
       vertex 63.9233 29.7855 -1.5
    endloop
  endfacet
  facet normal 0.994607 -0.103713 0
    outer loop
       vertex 63.6935 27.5817 1.5
       vertex 63.9233 29.7855 -1.5
       vertex 63.9233 29.7855 1.5
    endloop
  endfacet
  facet normal 0.999401 -0.0346138 0
    outer loop
       vertex 63.9233 29.7855 1.5
       vertex 63.9233 29.7855 -1.5
       vertex 64 32 -1.5
    endloop
  endfacet
  facet normal 0.999401 -0.0346138 0
    outer loop
       vertex 63.9233 29.7855 1.5
       vertex 64 32 -1.5
       vertex 64 32 1.5
    endloop
  endfacet
  facet normal 1 0 0
    outer loop
       vertex 64 64 1.5
       vertex 64 32 1.5
       vertex 64 64 -1.5
    endloop
  endfacet
  facet normal 1 0 0
    outer loop
       vertex 64 64 -1.5
       vertex 64 32 1.5
       vertex 64 32 -1.5
    endloop
  endfacet
endsolid outerWall2
solid outlet
  facet normal -0 1 0
    outer loop
       vertex 48 64 1.5
       vertex 64 64 1.5
       vertex 48 64 -1.5
    endloop
  endfacet
  facet normal 0 1 0
    outer loop
       vertex 48 64 -1.5
       vertex 64 64 1.5
       vertex 64 64 -1.5
    endloop
  endfacet
endsolid outlet
solid front
  facet normal 0 0 1
    outer loop
       vertex 64 64 1.5
       vertex 48 64 1.5
       vertex 64 32 1.5
    endloop
  endfacet
  facet normal 0 0 1
    outer loop
       vertex 64 32 1.5
       vertex 48 64 1.5
       vertex 48 32 1.5
    endloop
  endfacet
  facet normal 0 0 1
    outer loop
       vertex 64 32 1.5
       vertex 48 32 1.5
       vertex 47.9627 30.9081 1.5
    endloop
  endfacet
  facet normal -0 0 1
    outer loop
       vertex 47.9627 30.9081 1.5
       vertex 47.851 29.8213 1.5
       vertex 64 32 1.5
    endloop
  endfacet
  facet normal 0 0 1
    outer loop
       vertex 64 32 1.5
       vertex 47.851 29.8213 1.5
       vertex 47.6654 28.7447 1.5
    endloop
  endfacet
  facet normal 0 0 1
    outer loop
       vertex 64 32 1.5
       vertex 47.6654 28.7447 1.5
       vertex 47.4067 27.6833 1.5
    endloop
  endfacet
  facet normal 0 0 1
    outer loop
       vertex 45.6707 23.6867 1.5
       vertex 45.0715 22.7731 1.5
       vertex 52.6274 7.53554 1.5
    endloop
  endfacet
  facet normal 0 0 1
    outer loop
       vertex 52.6274 7.53554 1.5
       vertex 45.0715 22.7731 1.5
       vertex 44.4114 21.9026 1.5
    endloop
  endfacet
  facet normal 0 0 1
    outer loop
       vertex 52.6274 7.53554 1.5
       vertex 44.4114 21.9026 1.5
       vertex 43.6934 21.0791 1.5
    endloop
  endfacet
  facet normal 0 0 1
    outer loop
       vertex 52.6274 -4.43258 1.5
       vertex 56.6274 -4.43258 1.5
       vertex 52.6274 7.53554 1.5
    endloop
  endfacet
  facet normal -0 0 1
    outer loop
       vertex 52.6274 7.53554 1.5
       vertex 56.6274 -4.43258 1.5
       vertex 56.6274 11.5674 1.5
    endloop
  endfacet
  facet normal 0 0 1
    outer loop
       vertex 52.6274 7.53554 1.5
       vertex 56.6274 11.5674 1.5
       vertex 57.9823 13.3207 1.5
    endloop
  endfacet
  facet normal 0 -0 1
    outer loop
       vertex 61.2767 19.082 1.5
       vertex 62.1005 21.139 1.5
       vertex 52.6274 7.53554 1.5
    endloop
  endfacet
  facet normal 0 0 1
    outer loop
       vertex 52.6274 7.53554 1.5
       vertex 62.1005 21.139 1.5
       vertex 62.7799 23.248 1.5
    endloop
  endfacet
  facet normal 0 0 1
    outer loop
       vertex 52.6274 7.53554 1.5
       vertex 62.7799 23.248 1.5
       vertex 63.3118 25.399 1.5
    endloop
  endfacet
  facet normal 0 -0 1
    outer loop
       vertex 63.3118 25.399 1.5
       vertex 63.6935 27.5817 1.5
       vertex 52.6274 7.53554 1.5
    endloop
  endfacet
  facet normal 0 0 1
    outer loop
       vertex 52.6274 7.53554 1.5
       vertex 63.6935 27.5817 1.5
       vertex 63.9233 29.7855 1.5
    endloop
  endfacet
  facet normal 0 0 1
    outer loop
       vertex 52.6274 7.53554 1.5
       vertex 63.9233 29.7855 1.5
       vertex 64 32 1.5
    endloop
  endfacet
  facet normal -0 0 1
    outer loop
       vertex 47.4067 27.6833 1.5
       vertex 47.0762 26.6419 1.5
       vertex 64 32 1.5
    endloop
  endfacet
  facet normal 0 0 1
    outer loop
       vertex 64 32 1.5
       vertex 47.0762 26.6419 1.5
       vertex 46.6754 25.6256 1.5
    endloop
  endfacet
  facet normal 0 0 1
    outer loop
       vertex 64 32 1.5
       vertex 46.6754 25.6256 1.5
       vertex 52.6274 7.53554 1.5
    endloop
  endfacet
  facet normal 0 0 1
    outer loop
       vertex 52.6274 7.53554 1.5
       vertex 46.6754 25.6256 1.5
       vertex 46.2062 24.639 1.5
    endloop
  endfacet
  facet normal 0 0 1
    outer loop
       vertex 52.6274 7.53554 1.5
       vertex 46.2062 24.639 1.5
       vertex 45.6707 23.6867 1.5
    endloop
  endfacet
  facet normal 0 -0 1
    outer loop
       vertex 57.9823 13.3207 1.5
       vertex 59.2127 15.1635 1.5
       vertex 52.6274 7.53554 1.5
    endloop
  endfacet
  facet normal 0 0 1
    outer loop
       vertex 52.6274 7.53554 1.5
       vertex 59.2127 15.1635 1.5
       vertex 60.3126 17.087 1.5
    endloop
  endfacet
  facet normal 0 0 1
    outer loop
       vertex 52.6274 7.53554 1.5
       vertex 60.3126 17.087 1.5
       vertex 61.2767 19.082 1.5
    endloop
  endfacet
  facet normal -0 0 1
    outer loop
       vertex 38.3744 17.3246 1.5
       vertex 45.7971 3.12719 1.5
       vertex 39.361 17.7938 1.5
    endloop
  endfacet
  facet normal 0 0 1
    outer loop
       vertex 39.361 17.7938 1.5
       vertex 45.7971 3.12719 1.5
       vertex 47.6066 4.06376 1.5
    endloop
  endfacet
  facet normal -0 0 1
    outer loop
       vertex 39.361 17.7938 1.5
       vertex 47.6066 4.06376 1.5
       vertex 40.3133 18.3293 1.5
    endloop
  endfacet
  facet normal 0 0 1
    outer loop
       vertex 40.3133 18.3293 1.5
       vertex 47.6066 4.06376 1.5
       vertex 49.3528 5.11359 1.5
    endloop
  endfacet
  facet normal -0 0 1
    outer loop
       vertex 40.3133 18.3293 1.5
       vertex 49.3528 5.11359 1.5
       vertex 41.2269 18.9285 1.5
    endloop
  endfacet
  facet normal 0 0 1
    outer loop
       vertex 41.2269 18.9285 1.5
       vertex 49.3528 5.11359 1.5
       vertex 51.0287 6.27241 1.5
    endloop
  endfacet
  facet normal -0 0 1
    outer loop
       vertex 41.2269 18.9285 1.5
       vertex 51.0287 6.27241 1.5
       vertex 42.0974 19.5886 1.5
    endloop
  endfacet
  facet normal 0 0 1
    outer loop
       vertex 42.0974 19.5886 1.5
       vertex 51.0287 6.27241 1.5
       vertex 52.6274 7.53554 1.5
    endloop
  endfacet
  facet normal -0 0 1
    outer loop
       vertex 42.0974 19.5886 1.5
       vertex 52.6274 7.53554 1.5
       vertex 42.9208 20.3066 1.5
    endloop
  endfacet
  facet normal -0 0 1
    outer loop
       vertex 42.9208 20.3066 1.5
       vertex 52.6274 7.53554 1.5
       vertex 43.6934 21.0791 1.5
    endloop
  endfacet
  facet normal -0 0 1
    outer loop
       vertex 0 16 1.5
       vertex 0 0 1.5
       vertex 32 16 1.5
    endloop
  endfacet
  facet normal 0 0 1
    outer loop
       vertex 32 16 1.5
       vertex 0 0 1.5
       vertex 32 0 1.5
    endloop
  endfacet
  facet normal -0 0 1
    outer loop
       vertex 32 16 1.5
       vertex 32 0 1.5
       vertex 33.0919 16.0373 1.5
    endloop
  endfacet
  facet normal 0 0 1
    outer loop
       vertex 33.0919 16.0373 1.5
       vertex 32 0 1.5
       vertex 34.0365 0.0648657 1.5
    endloop
  endfacet
  facet normal -0 0 1
    outer loop
       vertex 33.0919 16.0373 1.5
       vertex 34.0365 0.0648657 1.5
       vertex 34.1787 16.149 1.5
    endloop
  endfacet
  facet normal 0 0 1
    outer loop
       vertex 34.1787 16.149 1.5
       vertex 34.0365 0.0648657 1.5
       vertex 36.0647 0.2592 1.5
    endloop
  endfacet
  facet normal -0 0 1
    outer loop
       vertex 34.1787 16.149 1.5
       vertex 36.0647 0.2592 1.5
       vertex 35.2553 16.3347 1.5
    endloop
  endfacet
  facet normal 0 0 1
    outer loop
       vertex 35.2553 16.3347 1.5
       vertex 36.0647 0.2592 1.5
       vertex 38.0764 0.582214 1.5
    endloop
  endfacet
  facet normal -0 0 1
    outer loop
       vertex 35.2553 16.3347 1.5
       vertex 38.0764 0.582214 1.5
       vertex 36.3167 16.5933 1.5
    endloop
  endfacet
  facet normal 0 0 1
    outer loop
       vertex 36.3167 16.5933 1.5
       vertex 38.0764 0.582214 1.5
       vertex 40.0635 1.0326 1.5
    endloop
  endfacet
  facet normal -0 0 1
    outer loop
       vertex 36.3167 16.5933 1.5
       vertex 40.0635 1.0326 1.5
       vertex 37.3581 16.9238 1.5
    endloop
  endfacet
  facet normal 0 0 1
    outer loop
       vertex 37.3581 16.9238 1.5
       vertex 40.0635 1.0326 1.5
       vertex 42.0179 1.60853 1.5
    endloop
  endfacet
  facet normal -0 0 1
    outer loop
       vertex 37.3581 16.9238 1.5
       vertex 42.0179 1.60853 1.5
       vertex 38.3744 17.3246 1.5
    endloop
  endfacet
  facet normal 0 0 1
    outer loop
       vertex 38.3744 17.3246 1.5
       vertex 42.0179 1.60853 1.5
       vertex 43.9317 2.30767 1.5
    endloop
  endfacet
  facet normal 0 0 1
    outer loop
       vertex 38.3744 17.3246 1.5
       vertex 43.9317 2.30767 1.5
       vertex 45.7971 3.12719 1.5
    endloop
  endfacet
endsolid front
solid back
  facet normal 0 0 -1
    outer loop
       vertex 48 64 -1.5
       vertex 64 64 -1.5
       vertex 48 32 -1.5
    endloop
  endfacet
  facet normal 0 0 -1
    outer loop
       vertex 48 32 -1.5
       vertex 64 64 -1.5
       vertex 64 32 -1.5
    endloop
  endfacet
  facet normal 0 0 -1
    outer loop
       vertex 64 32 -1.5
       vertex 63.9233 29.7855 -1.5
       vertex 52.6274 7.53554 -1.5
    endloop
  endfacet
  facet normal 0 0 -1
    outer loop
       vertex 52.6274 7.53554 -1.5
       vertex 63.9233 29.7855 -1.5
       vertex 63.6935 27.5817 -1.5
    endloop
  endfacet
  facet normal 0 0 -1
    outer loop
       vertex 63.6935 27.5817 -1.5
       vertex 63.3118 25.399 -1.5
       vertex 52.6274 7.53554 -1.5
    endloop
  endfacet
  facet normal 0 0 -1
    outer loop
       vertex 52.6274 7.53554 -1.5
       vertex 63.3118 25.399 -1.5
       vertex 62.7799 23.248 -1.5
    endloop
  endfacet
  facet normal 0 0 -1
    outer loop
       vertex 52.6274 7.53554 -1.5
       vertex 62.7799 23.248 -1.5
       vertex 62.1005 21.139 -1.5
    endloop
  endfacet
  facet normal 0 0 -1
    outer loop
       vertex 62.1005 21.139 -1.5
       vertex 61.2767 19.082 -1.5
       vertex 52.6274 7.53554 -1.5
    endloop
  endfacet
  facet normal 0 0 -1
    outer loop
       vertex 52.6274 7.53554 -1.5
       vertex 61.2767 19.082 -1.5
       vertex 60.3126 17.087 -1.5
    endloop
  endfacet
  facet normal 0 0 -1
    outer loop
       vertex 52.6274 7.53554 -1.5
       vertex 60.3126 17.087 -1.5
       vertex 59.2127 15.1635 -1.5
    endloop
  endfacet
  facet normal 0 -0 -1
    outer loop
       vertex 47.6654 28.7447 -1.5
       vertex 64 32 -1.5
       vertex 47.4067 27.6833 -1.5
    endloop
  endfacet
  facet normal 0 -0 -1
    outer loop
       vertex 47.4067 27.6833 -1.5
       vertex 64 32 -1.5
       vertex 47.0762 26.6419 -1.5
    endloop
  endfacet
  facet normal 0 0 -1
    outer loop
       vertex 47.6654 28.7447 -1.5
       vertex 47.851 29.8213 -1.5
       vertex 64 32 -1.5
    endloop
  endfacet
  facet normal 0 0 -1
    outer loop
       vertex 64 32 -1.5
       vertex 47.851 29.8213 -1.5
       vertex 47.9627 30.9081 -1.5
    endloop
  endfacet
  facet normal -0 0 -1
    outer loop
       vertex 64 32 -1.5
       vertex 47.9627 30.9081 -1.5
       vertex 48 32 -1.5
    endloop
  endfacet
  facet normal 0 0 -1
    outer loop
       vertex 56.6274 -4.43258 -1.5
       vertex 52.6274 -4.43258 -1.5
       vertex 56.6274 11.5674 -1.5
    endloop
  endfacet
  facet normal 0 0 -1
    outer loop
       vertex 56.6274 11.5674 -1.5
       vertex 52.6274 -4.43258 -1.5
       vertex 52.6274 7.53554 -1.5
    endloop
  endfacet
  facet normal -0 0 -1
    outer loop
       vertex 56.6274 11.5674 -1.5
       vertex 52.6274 7.53554 -1.5
       vertex 57.9823 13.3207 -1.5
    endloop
  endfacet
  facet normal -0 0 -1
    outer loop
       vertex 57.9823 13.3207 -1.5
       vertex 52.6274 7.53554 -1.5
       vertex 59.2127 15.1635 -1.5
    endloop
  endfacet
  facet normal 0 0 -1
    outer loop
       vertex 42.9208 20.3066 -1.5
       vertex 43.6934 21.0791 -1.5
       vertex 52.6274 7.53554 -1.5
    endloop
  endfacet
  facet normal 0 0 -1
    outer loop
       vertex 52.6274 7.53554 -1.5
       vertex 43.6934 21.0791 -1.5
       vertex 44.4114 21.9026 -1.5
    endloop
  endfacet
  facet normal 0 0 -1
    outer loop
       vertex 52.6274 7.53554 -1.5
       vertex 44.4114 21.9026 -1.5
       vertex 45.0715 22.7731 -1.5
    endloop
  endfacet
  facet normal 0 0 -1
    outer loop
       vertex 45.0715 22.7731 -1.5
       vertex 45.6707 23.6867 -1.5
       vertex 52.6274 7.53554 -1.5
    endloop
  endfacet
  facet normal 0 0 -1
    outer loop
       vertex 52.6274 7.53554 -1.5
       vertex 45.6707 23.6867 -1.5
       vertex 46.2062 24.639 -1.5
    endloop
  endfacet
  facet normal 0 0 -1
    outer loop
       vertex 52.6274 7.53554 -1.5
       vertex 46.2062 24.639 -1.5
       vertex 64 32 -1.5
    endloop
  endfacet
  facet normal 0 0 -1
    outer loop
       vertex 64 32 -1.5
       vertex 46.2062 24.639 -1.5
       vertex 46.6754 25.6256 -1.5
    endloop
  endfacet
  facet normal 0 0 -1
    outer loop
       vertex 64 32 -1.5
       vertex 46.6754 25.6256 -1.5
       vertex 47.0762 26.6419 -1.5
    endloop
  endfacet
  facet normal 0 0 -1
    outer loop
       vertex 0 0 -1.5
       vertex 0 16 -1.5
       vertex 32 0 -1.5
    endloop
  endfacet
  facet normal 0 0 -1
    outer loop
       vertex 32 0 -1.5
       vertex 0 16 -1.5
       vertex 32 16 -1.5
    endloop
  endfacet
  facet normal 0 0 -1
    outer loop
       vertex 32 0 -1.5
       vertex 32 16 -1.5
       vertex 34.0365 0.0648657 -1.5
    endloop
  endfacet
  facet normal 0 0 -1
    outer loop
       vertex 34.0365 0.0648657 -1.5
       vertex 32 16 -1.5
       vertex 33.0919 16.0373 -1.5
    endloop
  endfacet
  facet normal 0 0 -1
    outer loop
       vertex 34.0365 0.0648657 -1.5
       vertex 33.0919 16.0373 -1.5
       vertex 36.0647 0.2592 -1.5
    endloop
  endfacet
  facet normal 0 0 -1
    outer loop
       vertex 36.0647 0.2592 -1.5
       vertex 33.0919 16.0373 -1.5
       vertex 34.1787 16.149 -1.5
    endloop
  endfacet
  facet normal 0 0 -1
    outer loop
       vertex 36.0647 0.2592 -1.5
       vertex 34.1787 16.149 -1.5
       vertex 38.0764 0.582214 -1.5
    endloop
  endfacet
  facet normal 0 0 -1
    outer loop
       vertex 38.0764 0.582214 -1.5
       vertex 34.1787 16.149 -1.5
       vertex 35.2553 16.3347 -1.5
    endloop
  endfacet
  facet normal 0 0 -1
    outer loop
       vertex 38.0764 0.582214 -1.5
       vertex 35.2553 16.3347 -1.5
       vertex 40.0635 1.0326 -1.5
    endloop
  endfacet
  facet normal 0 0 -1
    outer loop
       vertex 40.0635 1.0326 -1.5
       vertex 35.2553 16.3347 -1.5
       vertex 36.3167 16.5933 -1.5
    endloop
  endfacet
  facet normal 0 0 -1
    outer loop
       vertex 40.0635 1.0326 -1.5
       vertex 36.3167 16.5933 -1.5
       vertex 42.0179 1.60853 -1.5
    endloop
  endfacet
  facet normal 0 0 -1
    outer loop
       vertex 42.0179 1.60853 -1.5
       vertex 36.3167 16.5933 -1.5
       vertex 37.3581 16.9238 -1.5
    endloop
  endfacet
  facet normal 0 0 -1
    outer loop
       vertex 42.0179 1.60853 -1.5
       vertex 37.3581 16.9238 -1.5
       vertex 43.9317 2.30767 -1.5
    endloop
  endfacet
  facet normal 0 0 -1
    outer loop
       vertex 43.9317 2.30767 -1.5
       vertex 37.3581 16.9238 -1.5
       vertex 38.3744 17.3246 -1.5
    endloop
  endfacet
  facet normal 0 0 -1
    outer loop
       vertex 43.9317 2.30767 -1.5
       vertex 38.3744 17.3246 -1.5
       vertex 45.7971 3.12719 -1.5
    endloop
  endfacet
  facet normal 0 0 -1
    outer loop
       vertex 45.7971 3.12719 -1.5
       vertex 38.3744 17.3246 -1.5
       vertex 39.361 17.7938 -1.5
    endloop
  endfacet
  facet normal 0 0 -1
    outer loop
       vertex 45.7971 3.12719 -1.5
       vertex 39.361 17.7938 -1.5
       vertex 47.6066 4.06376 -1.5
    endloop
  endfacet
  facet normal 0 0 -1
    outer loop
       vertex 47.6066 4.06376 -1.5
       vertex 39.361 17.7938 -1.5
       vertex 49.3528 5.11359 -1.5
    endloop
  endfacet
  facet normal 0 0 -1
    outer loop
       vertex 49.3528 5.11359 -1.5
       vertex 39.361 17.7938 -1.5
       vertex 40.3133 18.3293 -1.5
    endloop
  endfacet
  facet normal 0 0 -1
    outer loop
       vertex 49.3528 5.11359 -1.5
       vertex 40.3133 18.3293 -1.5
       vertex 51.0287 6.27241 -1.5
    endloop
  endfacet
  facet normal 0 0 -1
    outer loop
       vertex 51.0287 6.27241 -1.5
       vertex 40.3133 18.3293 -1.5
       vertex 41.2269 18.9285 -1.5
    endloop
  endfacet
  facet normal 0 0 -1
    outer loop
       vertex 51.0287 6.27241 -1.5
       vertex 41.2269 18.9285 -1.5
       vertex 52.6274 7.53554 -1.5
    endloop
  endfacet
  facet normal 0 0 -1
    outer loop
       vertex 52.6274 7.53554 -1.5
       vertex 41.2269 18.9285 -1.5
       vertex 42.0974 19.5886 -1.5
    endloop
  endfacet
  facet normal 0 0 -1
    outer loop
       vertex 52.6274 7.53554 -1.5
       vertex 42.0974 19.5886 -1.5
       vertex 42.9208 20.3066 -1.5
    endloop
  endfacet
endsolid back
